<?xml version="1.0" encoding="utf-8" standalone="no"?>
<!DOCTYPE svg PUBLIC "-//W3C//DTD SVG 1.1//EN"
  "http://www.w3.org/Graphics/SVG/1.1/DTD/svg11.dtd">
<!-- Created with matplotlib (https://matplotlib.org/) -->
<svg height="578.315625pt" version="1.1" viewBox="0 0 572.4 578.315625" width="572.4pt" xmlns="http://www.w3.org/2000/svg" xmlns:xlink="http://www.w3.org/1999/xlink">
 <metadata>
  <rdf:RDF xmlns:cc="http://creativecommons.org/ns#" xmlns:dc="http://purl.org/dc/elements/1.1/" xmlns:rdf="http://www.w3.org/1999/02/22-rdf-syntax-ns#">
   <cc:Work>
    <dc:type rdf:resource="http://purl.org/dc/dcmitype/StillImage"/>
    <dc:date>2021-01-21T23:12:00.650781</dc:date>
    <dc:format>image/svg+xml</dc:format>
    <dc:creator>
     <cc:Agent>
      <dc:title>Matplotlib v3.3.2, https://matplotlib.org/</dc:title>
     </cc:Agent>
    </dc:creator>
   </cc:Work>
  </rdf:RDF>
 </metadata>
 <defs>
  <style type="text/css">*{stroke-linecap:butt;stroke-linejoin:round;}</style>
 </defs>
 <g id="figure_1">
  <g id="axes_1">
   <g id="patch_1">
    <path d="M 7.2 571.115625 
L 565.2 571.115625 
L 565.2 27.515625 
L 7.2 27.515625 
z
" style="fill:#ffffff;"/>
   </g>
   <g id="matplotlib.axis_1">
    <g id="xtick_1">
     <g id="line2d_1">
      <path clip-path="url(#pfde5fb7239)" d="M 115.403044 571.115625 
L 115.403044 27.515625 
" style="fill:none;stroke:#cccccc;stroke-linecap:round;"/>
     </g>
    </g>
    <g id="xtick_2">
     <g id="line2d_2">
      <path clip-path="url(#pfde5fb7239)" d="M 225.405191 571.115625 
L 225.405191 27.515625 
" style="fill:none;stroke:#cccccc;stroke-linecap:round;"/>
     </g>
    </g>
    <g id="xtick_3">
     <g id="line2d_3">
      <path clip-path="url(#pfde5fb7239)" d="M 335.407339 571.115625 
L 335.407339 27.515625 
" style="fill:none;stroke:#cccccc;stroke-linecap:round;"/>
     </g>
    </g>
    <g id="xtick_4">
     <g id="line2d_4">
      <path clip-path="url(#pfde5fb7239)" d="M 445.409486 571.115625 
L 445.409486 27.515625 
" style="fill:none;stroke:#cccccc;stroke-linecap:round;"/>
     </g>
    </g>
    <g id="xtick_5">
     <g id="line2d_5">
      <path clip-path="url(#pfde5fb7239)" d="M 555.411633 571.115625 
L 555.411633 27.515625 
" style="fill:none;stroke:#cccccc;stroke-linecap:round;"/>
     </g>
    </g>
   </g>
   <g id="matplotlib.axis_2">
    <g id="ytick_1">
     <g id="line2d_6">
      <path clip-path="url(#pfde5fb7239)" d="M 7.2 516.173157 
L 565.2 516.173157 
" style="fill:none;stroke:#cccccc;stroke-linecap:round;"/>
     </g>
    </g>
    <g id="ytick_2">
     <g id="line2d_7">
      <path clip-path="url(#pfde5fb7239)" d="M 7.2 454.619689 
L 565.2 454.619689 
" style="fill:none;stroke:#cccccc;stroke-linecap:round;"/>
     </g>
    </g>
    <g id="ytick_3">
     <g id="line2d_8">
      <path clip-path="url(#pfde5fb7239)" d="M 7.2 393.066222 
L 565.2 393.066222 
" style="fill:none;stroke:#cccccc;stroke-linecap:round;"/>
     </g>
    </g>
    <g id="ytick_4">
     <g id="line2d_9">
      <path clip-path="url(#pfde5fb7239)" d="M 7.2 331.512754 
L 565.2 331.512754 
" style="fill:none;stroke:#cccccc;stroke-linecap:round;"/>
     </g>
    </g>
    <g id="ytick_5">
     <g id="line2d_10">
      <path clip-path="url(#pfde5fb7239)" d="M 7.2 269.959287 
L 565.2 269.959287 
" style="fill:none;stroke:#cccccc;stroke-linecap:round;"/>
     </g>
    </g>
    <g id="ytick_6">
     <g id="line2d_11">
      <path clip-path="url(#pfde5fb7239)" d="M 7.2 208.40582 
L 565.2 208.40582 
" style="fill:none;stroke:#cccccc;stroke-linecap:round;"/>
     </g>
    </g>
    <g id="ytick_7">
     <g id="line2d_12">
      <path clip-path="url(#pfde5fb7239)" d="M 7.2 146.852352 
L 565.2 146.852352 
" style="fill:none;stroke:#cccccc;stroke-linecap:round;"/>
     </g>
    </g>
    <g id="ytick_8">
     <g id="line2d_13">
      <path clip-path="url(#pfde5fb7239)" d="M 7.2 85.298885 
L 565.2 85.298885 
" style="fill:none;stroke:#cccccc;stroke-linecap:round;"/>
     </g>
    </g>
   </g>
   <g id="PathCollection_1">
    <path clip-path="url(#pfde5fb7239)" d="M 32.563636 422.467742 
C 34.187667 422.467742 35.7454 421.822508 36.893763 420.674145 
C 38.042126 419.525781 38.687361 417.968048 38.687361 416.344017 
C 38.687361 414.719987 38.042126 413.162254 36.893763 412.01389 
C 35.7454 410.865527 34.187667 410.220293 32.563636 410.220293 
C 30.939606 410.220293 29.381872 410.865527 28.233509 412.01389 
C 27.085146 413.162254 26.439912 414.719987 26.439912 416.344017 
C 26.439912 417.968048 27.085146 419.525781 28.233509 420.674145 
C 29.381872 421.822508 30.939606 422.467742 32.563636 422.467742 
z
" style="fill:#de5d5c;stroke:#ffffff;stroke-width:0.979796;"/>
    <path clip-path="url(#pfde5fb7239)" d="M 217.585831 134.27054 
C 219.209862 134.27054 220.767595 133.625306 221.915959 132.476943 
C 223.064322 131.32858 223.709556 129.770847 223.709556 128.146816 
C 223.709556 126.522785 223.064322 124.965052 221.915959 123.816689 
C 220.767595 122.668326 219.209862 122.023091 217.585831 122.023091 
C 215.961801 122.023091 214.404068 122.668326 213.255704 123.816689 
C 212.107341 124.965052 211.462107 126.522785 211.462107 128.146816 
C 211.462107 129.770847 212.107341 131.32858 213.255704 132.476943 
C 214.404068 133.625306 215.961801 134.27054 217.585831 134.27054 
z
" style="fill:#de5d5c;stroke:#ffffff;stroke-width:0.979796;"/>
    <path clip-path="url(#pfde5fb7239)" d="M 318.059221 287.293194 
C 319.683252 287.293194 321.240985 286.647959 322.389348 285.499596 
C 323.537711 284.351233 324.182946 282.7935 324.182946 281.169469 
C 324.182946 279.545438 323.537711 277.987705 322.389348 276.839342 
C 321.240985 275.690979 319.683252 275.045745 318.059221 275.045745 
C 316.435191 275.045745 314.877457 275.690979 313.729094 276.839342 
C 312.580731 277.987705 311.935497 279.545438 311.935497 281.169469 
C 311.935497 282.7935 312.580731 284.351233 313.729094 285.499596 
C 314.877457 286.647959 316.435191 287.293194 318.059221 287.293194 
z
" style="fill:#de5d5c;stroke:#ffffff;stroke-width:0.979796;"/>
    <path clip-path="url(#pfde5fb7239)" d="M 300.746953 338.679019 
C 302.370984 338.679019 303.928717 338.033784 305.07708 336.885421 
C 306.225443 335.737058 306.870677 334.179325 306.870677 332.555294 
C 306.870677 330.931264 306.225443 329.37353 305.07708 328.225167 
C 303.928717 327.076804 302.370984 326.43157 300.746953 326.43157 
C 299.122922 326.43157 297.565189 327.076804 296.416826 328.225167 
C 295.268463 329.37353 294.623228 330.931264 294.623228 332.555294 
C 294.623228 334.179325 295.268463 335.737058 296.416826 336.885421 
C 297.565189 338.033784 299.122922 338.679019 300.746953 338.679019 
z
" style="fill:#de5d5c;stroke:#ffffff;stroke-width:0.979796;"/>
    <path clip-path="url(#pfde5fb7239)" d="M 310.923284 178.623872 
C 312.547314 178.623872 314.105048 177.978638 315.253411 176.830275 
C 316.401774 175.681912 317.047008 174.124179 317.047008 172.500148 
C 317.047008 170.876117 316.401774 169.318384 315.253411 168.170021 
C 314.105048 167.021658 312.547314 166.376424 310.923284 166.376424 
C 309.299253 166.376424 307.74152 167.021658 306.593157 168.170021 
C 305.444793 169.318384 304.799559 170.876117 304.799559 172.500148 
C 304.799559 174.124179 305.444793 175.681912 306.593157 176.830275 
C 307.74152 177.978638 309.299253 178.623872 310.923284 178.623872 
z
" style="fill:#de5d5c;stroke:#ffffff;stroke-width:0.979796;"/>
    <path clip-path="url(#pfde5fb7239)" d="M 49.096293 397.069157 
C 50.720323 397.069157 52.278057 396.423923 53.42642 395.27556 
C 54.574783 394.127197 55.220017 392.569464 55.220017 390.945433 
C 55.220017 389.321402 54.574783 387.763669 53.42642 386.615306 
C 52.278057 385.466943 50.720323 384.821709 49.096293 384.821709 
C 47.472262 384.821709 45.914529 385.466943 44.766166 386.615306 
C 43.617803 387.763669 42.972568 389.321402 42.972568 390.945433 
C 42.972568 392.569464 43.617803 394.127197 44.766166 395.27556 
C 45.914529 396.423923 47.472262 397.069157 49.096293 397.069157 
z
" style="fill:#de5d5c;stroke:#ffffff;stroke-width:0.979796;"/>
    <path clip-path="url(#pfde5fb7239)" d="M 245.262129 323.313392 
C 246.886159 323.313392 248.443893 322.668158 249.592256 321.519795 
C 250.740619 320.371432 251.385853 318.813699 251.385853 317.189668 
C 251.385853 315.565637 250.740619 314.007904 249.592256 312.859541 
C 248.443893 311.711178 246.886159 311.065944 245.262129 311.065944 
C 243.638098 311.065944 242.080365 311.711178 240.932002 312.859541 
C 239.783639 314.007904 239.138404 315.565637 239.138404 317.189668 
C 239.138404 318.813699 239.783639 320.371432 240.932002 321.519795 
C 242.080365 322.668158 243.638098 323.313392 245.262129 323.313392 
z
" style="fill:#de5d5c;stroke:#ffffff;stroke-width:0.979796;"/>
    <path clip-path="url(#pfde5fb7239)" d="M 96.340453 194.876023 
C 97.964484 194.876023 99.522217 194.230789 100.67058 193.082426 
C 101.818943 191.934063 102.464177 190.37633 102.464177 188.752299 
C 102.464177 187.128268 101.818943 185.570535 100.67058 184.422172 
C 99.522217 183.273809 97.964484 182.628575 96.340453 182.628575 
C 94.716422 182.628575 93.158689 183.273809 92.010326 184.422172 
C 90.861963 185.570535 90.216728 187.128268 90.216728 188.752299 
C 90.216728 190.37633 90.861963 191.934063 92.010326 193.082426 
C 93.158689 194.230789 94.716422 194.876023 96.340453 194.876023 
z
" style="fill:#de5d5c;stroke:#ffffff;stroke-width:0.979796;"/>
    <path clip-path="url(#pfde5fb7239)" d="M 539.836364 494.049513 
C 541.460394 494.049513 543.018128 493.404278 544.166491 492.255915 
C 545.314854 491.107552 545.960088 489.549819 545.960088 487.925788 
C 545.960088 486.301758 545.314854 484.744024 544.166491 483.595661 
C 543.018128 482.447298 541.460394 481.802064 539.836364 481.802064 
C 538.212333 481.802064 536.6546 482.447298 535.506237 483.595661 
C 534.357874 484.744024 533.712639 486.301758 533.712639 487.925788 
C 533.712639 489.549819 534.357874 491.107552 535.506237 492.255915 
C 536.6546 493.404278 538.212333 494.049513 539.836364 494.049513 
z
" style="fill:#de5d5c;stroke:#ffffff;stroke-width:0.979796;"/>
    <path clip-path="url(#pfde5fb7239)" d="M 270.504092 58.34844 
C 272.128123 58.34844 273.685856 57.703206 274.834219 56.554843 
C 275.982582 55.40648 276.627816 53.848747 276.627816 52.224716 
C 276.627816 50.600685 275.982582 49.042952 274.834219 47.894589 
C 273.685856 46.746226 272.128123 46.100992 270.504092 46.100992 
C 268.880061 46.100992 267.322328 46.746226 266.173965 47.894589 
C 265.025602 49.042952 264.380368 50.600685 264.380368 52.224716 
C 264.380368 53.848747 265.025602 55.40648 266.173965 56.554843 
C 267.322328 57.703206 268.880061 58.34844 270.504092 58.34844 
z
" style="fill:#de5d5c;stroke:#ffffff;stroke-width:0.979796;"/>
    <path clip-path="url(#pfde5fb7239)" d="M 197.537696 185.620516 
C 199.161727 185.620516 200.71946 184.975282 201.867823 183.826919 
C 203.016187 182.678556 203.661421 181.120822 203.661421 179.496792 
C 203.661421 177.872761 203.016187 176.315028 201.867823 175.166665 
C 200.71946 174.018302 199.161727 173.373067 197.537696 173.373067 
C 195.913666 173.373067 194.355933 174.018302 193.207569 175.166665 
C 192.059206 176.315028 191.413972 177.872761 191.413972 179.496792 
C 191.413972 181.120822 192.059206 182.678556 193.207569 183.826919 
C 194.355933 184.975282 195.913666 185.620516 197.537696 185.620516 
z
" style="fill:#de5d5c;stroke:#ffffff;stroke-width:0.979796;"/>
    <path clip-path="url(#pfde5fb7239)" d="M 353.875624 224.595486 
L 362.535879 215.935232 
L 353.875624 207.274978 
L 345.21537 215.935232 
z
" style="fill:#9a3670;stroke:#ffffff;stroke-width:0.979796;"/>
    <path clip-path="url(#pfde5fb7239)" d="M 502.939867 555.066788 
L 511.600121 546.406534 
L 502.939867 537.74628 
L 494.279613 546.406534 
z
" style="fill:#9a3670;stroke:#ffffff;stroke-width:0.979796;"/>
    <path clip-path="url(#pfde5fb7239)" d="M 267.82354 211.222889 
L 276.483794 202.562635 
L 267.82354 193.902381 
L 259.163286 202.562635 
z
" style="fill:#9a3670;stroke:#ffffff;stroke-width:0.979796;"/>
    <path clip-path="url(#pfde5fb7239)" d="M 160.404943 137.332884 
L 169.065197 128.67263 
L 160.404943 120.012376 
L 151.744689 128.67263 
z
" style="fill:#9a3670;stroke:#ffffff;stroke-width:0.979796;"/>
    <path clip-path="url(#pfde5fb7239)" d="M 149.250818 241.789688 
L 157.911072 233.129434 
L 149.250818 224.46918 
L 140.590564 233.129434 
z
" style="fill:#9a3670;stroke:#ffffff;stroke-width:0.979796;"/>
    <path clip-path="url(#pfde5fb7239)" d="M 406.801104 146.787026 
L 415.461358 138.126772 
L 406.801104 129.466518 
L 398.14085 138.126772 
z
" style="fill:#9a3670;stroke:#ffffff;stroke-width:0.979796;"/>
    <path clip-path="url(#pfde5fb7239)" d="M 101.908312 343.08754 
L 110.568566 334.427285 
L 101.908312 325.767031 
L 93.248058 334.427285 
z
" style="fill:#9a3670;stroke:#ffffff;stroke-width:0.979796;"/>
    <path clip-path="url(#pfde5fb7239)" d="M 52.986856 490.527572 
L 61.64711 481.867318 
L 52.986856 473.207064 
L 44.326602 481.867318 
z
" style="fill:#9a3670;stroke:#ffffff;stroke-width:0.979796;"/>
    <path clip-path="url(#pfde5fb7239)" d="M 138.355886 259.943969 
L 147.01614 251.283715 
L 138.355886 242.623461 
L 129.695631 251.283715 
z
" style="fill:#9a3670;stroke:#ffffff;stroke-width:0.979796;"/>
    <path clip-path="url(#pfde5fb7239)" d="M 161.939048 228.748617 
L 170.599302 220.088363 
L 161.939048 211.428109 
L 153.278794 220.088363 
z
" style="fill:#9a3670;stroke:#ffffff;stroke-width:0.979796;"/>
   </g>
   <g id="patch_2">
    <path d="M 7.2 571.115625 
L 7.2 27.515625 
" style="fill:none;stroke:#cccccc;stroke-linecap:square;stroke-linejoin:miter;stroke-width:1.25;"/>
   </g>
   <g id="patch_3">
    <path d="M 565.2 571.115625 
L 565.2 27.515625 
" style="fill:none;stroke:#cccccc;stroke-linecap:square;stroke-linejoin:miter;stroke-width:1.25;"/>
   </g>
   <g id="patch_4">
    <path d="M 7.2 571.115625 
L 565.2 571.115625 
" style="fill:none;stroke:#cccccc;stroke-linecap:square;stroke-linejoin:miter;stroke-width:1.25;"/>
   </g>
   <g id="patch_5">
    <path d="M 7.2 27.515625 
L 565.2 27.515625 
" style="fill:none;stroke:#cccccc;stroke-linecap:square;stroke-linejoin:miter;stroke-width:1.25;"/>
   </g>
   <g id="text_1">
    <!-- Night club -->
    <g transform="translate(40.813797 419.421691)scale(0.12 -0.12)">
     <defs>
      <path d="M 7.421875 0 
L 7.421875 71.578125 
L 21.484375 71.578125 
L 50.78125 23.78125 
L 50.78125 71.578125 
L 64.203125 71.578125 
L 64.203125 0 
L 49.703125 0 
L 20.84375 46.6875 
L 20.84375 0 
z
" id="Arial-BoldMT-78"/>
      <path d="M 7.171875 58.890625 
L 7.171875 71.578125 
L 20.90625 71.578125 
L 20.90625 58.890625 
z
M 7.171875 0 
L 7.171875 51.859375 
L 20.90625 51.859375 
L 20.90625 0 
z
" id="Arial-BoldMT-105"/>
      <path d="M 5.90625 -3.421875 
L 21.578125 -5.328125 
Q 21.96875 -8.0625 23.390625 -9.078125 
Q 25.34375 -10.546875 29.546875 -10.546875 
Q 34.90625 -10.546875 37.59375 -8.9375 
Q 39.40625 -7.859375 40.328125 -5.46875 
Q 40.96875 -3.765625 40.96875 0.828125 
L 40.96875 8.40625 
Q 34.8125 0 25.4375 0 
Q 14.984375 0 8.890625 8.84375 
Q 4.109375 15.828125 4.109375 26.21875 
Q 4.109375 39.265625 10.375 46.140625 
Q 16.65625 53.03125 25.984375 53.03125 
Q 35.59375 53.03125 41.84375 44.578125 
L 41.84375 51.859375 
L 54.6875 51.859375 
L 54.6875 5.328125 
Q 54.6875 -3.859375 53.171875 -8.390625 
Q 51.65625 -12.9375 48.921875 -15.515625 
Q 46.1875 -18.109375 41.625 -19.578125 
Q 37.0625 -21.046875 30.078125 -21.046875 
Q 16.890625 -21.046875 11.375 -16.53125 
Q 5.859375 -12.015625 5.859375 -5.078125 
Q 5.859375 -4.390625 5.90625 -3.421875 
z
M 18.171875 27 
Q 18.171875 18.75 21.359375 14.90625 
Q 24.5625 11.078125 29.25 11.078125 
Q 34.28125 11.078125 37.75 15.015625 
Q 41.21875 18.953125 41.21875 26.65625 
Q 41.21875 34.71875 37.890625 38.625 
Q 34.578125 42.53125 29.5 42.53125 
Q 24.5625 42.53125 21.359375 38.6875 
Q 18.171875 34.859375 18.171875 27 
z
" id="Arial-BoldMT-103"/>
      <path d="M 20.84375 71.578125 
L 20.84375 45.265625 
Q 27.484375 53.03125 36.71875 53.03125 
Q 41.453125 53.03125 45.265625 51.265625 
Q 49.078125 49.515625 51 46.78125 
Q 52.9375 44.046875 53.640625 40.71875 
Q 54.34375 37.40625 54.34375 30.421875 
L 54.34375 0 
L 40.625 0 
L 40.625 27.390625 
Q 40.625 35.546875 39.84375 37.734375 
Q 39.0625 39.9375 37.078125 41.234375 
Q 35.109375 42.53125 32.125 42.53125 
Q 28.71875 42.53125 26.03125 40.859375 
Q 23.34375 39.203125 22.09375 35.859375 
Q 20.84375 32.515625 20.84375 25.984375 
L 20.84375 0 
L 7.125 0 
L 7.125 71.578125 
z
" id="Arial-BoldMT-104"/>
      <path d="M 30.953125 51.859375 
L 30.953125 40.921875 
L 21.578125 40.921875 
L 21.578125 20.015625 
Q 21.578125 13.671875 21.84375 12.625 
Q 22.125 11.578125 23.078125 10.890625 
Q 24.03125 10.203125 25.390625 10.203125 
Q 27.296875 10.203125 30.90625 11.53125 
L 32.078125 0.875 
Q 27.296875 -1.171875 21.234375 -1.171875 
Q 17.53125 -1.171875 14.546875 0.0625 
Q 11.578125 1.3125 10.1875 3.296875 
Q 8.796875 5.28125 8.25 8.640625 
Q 7.8125 11.03125 7.8125 18.3125 
L 7.8125 40.921875 
L 1.515625 40.921875 
L 1.515625 51.859375 
L 7.8125 51.859375 
L 7.8125 62.15625 
L 21.578125 70.171875 
L 21.578125 51.859375 
z
" id="Arial-BoldMT-116"/>
      <path id="Arial-BoldMT-32"/>
      <path d="M 52.390625 36.53125 
L 38.875 34.078125 
Q 38.1875 38.140625 35.765625 40.1875 
Q 33.34375 42.234375 29.5 42.234375 
Q 24.359375 42.234375 21.3125 38.6875 
Q 18.265625 35.15625 18.265625 26.859375 
Q 18.265625 17.625 21.359375 13.8125 
Q 24.46875 10.015625 29.6875 10.015625 
Q 33.59375 10.015625 36.078125 12.234375 
Q 38.578125 14.453125 39.59375 19.875 
L 53.078125 17.578125 
Q 50.984375 8.296875 45.015625 3.5625 
Q 39.0625 -1.171875 29.046875 -1.171875 
Q 17.671875 -1.171875 10.90625 6 
Q 4.15625 13.1875 4.15625 25.875 
Q 4.15625 38.71875 10.9375 45.875 
Q 17.71875 53.03125 29.296875 53.03125 
Q 38.765625 53.03125 44.359375 48.953125 
Q 49.953125 44.875 52.390625 36.53125 
z
" id="Arial-BoldMT-99"/>
      <path d="M 7.171875 0 
L 7.171875 71.578125 
L 20.90625 71.578125 
L 20.90625 0 
z
" id="Arial-BoldMT-108"/>
      <path d="M 41.3125 0 
L 41.3125 7.765625 
Q 38.484375 3.609375 33.859375 1.21875 
Q 29.25 -1.171875 24.125 -1.171875 
Q 18.890625 -1.171875 14.734375 1.125 
Q 10.59375 3.421875 8.734375 7.5625 
Q 6.890625 11.71875 6.890625 19.046875 
L 6.890625 51.859375 
L 20.609375 51.859375 
L 20.609375 28.03125 
Q 20.609375 17.09375 21.359375 14.625 
Q 22.125 12.15625 24.125 10.71875 
Q 26.125 9.28125 29.203125 9.28125 
Q 32.71875 9.28125 35.5 11.203125 
Q 38.28125 13.140625 39.296875 15.984375 
Q 40.328125 18.84375 40.328125 29.984375 
L 40.328125 51.859375 
L 54.046875 51.859375 
L 54.046875 0 
z
" id="Arial-BoldMT-117"/>
      <path d="M 6.59375 0 
L 6.59375 71.578125 
L 20.3125 71.578125 
L 20.3125 45.796875 
Q 26.65625 53.03125 35.359375 53.03125 
Q 44.828125 53.03125 51.03125 46.171875 
Q 57.234375 39.3125 57.234375 26.46875 
Q 57.234375 13.1875 50.90625 6 
Q 44.578125 -1.171875 35.546875 -1.171875 
Q 31.109375 -1.171875 26.78125 1.046875 
Q 22.46875 3.265625 19.34375 7.625 
L 19.34375 0 
z
M 20.21875 27.046875 
Q 20.21875 19 22.75 15.140625 
Q 26.3125 9.671875 32.234375 9.671875 
Q 36.765625 9.671875 39.96875 13.546875 
Q 43.171875 17.4375 43.171875 25.78125 
Q 43.171875 34.671875 39.9375 38.59375 
Q 36.71875 42.53125 31.6875 42.53125 
Q 26.765625 42.53125 23.484375 38.6875 
Q 20.21875 34.859375 20.21875 27.046875 
z
" id="Arial-BoldMT-98"/>
     </defs>
     <use xlink:href="#Arial-BoldMT-78"/>
     <use x="72.216797" xlink:href="#Arial-BoldMT-105"/>
     <use x="100" xlink:href="#Arial-BoldMT-103"/>
     <use x="161.083984" xlink:href="#Arial-BoldMT-104"/>
     <use x="222.167969" xlink:href="#Arial-BoldMT-116"/>
     <use x="255.46875" xlink:href="#Arial-BoldMT-32"/>
     <use x="283.251953" xlink:href="#Arial-BoldMT-99"/>
     <use x="338.867188" xlink:href="#Arial-BoldMT-108"/>
     <use x="366.650391" xlink:href="#Arial-BoldMT-117"/>
     <use x="427.734375" xlink:href="#Arial-BoldMT-98"/>
    </g>
   </g>
   <g id="text_2">
    <!-- Restaurant -->
    <g transform="translate(225.835993 131.224489)scale(0.12 -0.12)">
     <defs>
      <path d="M 7.328125 0 
L 7.328125 71.578125 
L 37.75 71.578125 
Q 49.21875 71.578125 54.421875 69.640625 
Q 59.625 67.71875 62.75 62.78125 
Q 65.875 57.859375 65.875 51.515625 
Q 65.875 43.453125 61.125 38.203125 
Q 56.390625 32.953125 46.96875 31.59375 
Q 51.65625 28.859375 54.703125 25.578125 
Q 57.765625 22.3125 62.9375 13.96875 
L 71.6875 0 
L 54.390625 0 
L 43.953125 15.578125 
Q 38.375 23.921875 36.328125 26.09375 
Q 34.28125 28.265625 31.984375 29.078125 
Q 29.6875 29.890625 24.703125 29.890625 
L 21.78125 29.890625 
L 21.78125 0 
z
M 21.78125 41.3125 
L 32.46875 41.3125 
Q 42.875 41.3125 45.453125 42.1875 
Q 48.046875 43.0625 49.515625 45.203125 
Q 50.984375 47.359375 50.984375 50.59375 
Q 50.984375 54.203125 49.046875 56.421875 
Q 47.125 58.640625 43.609375 59.234375 
Q 41.84375 59.46875 33.0625 59.46875 
L 21.78125 59.46875 
z
" id="Arial-BoldMT-82"/>
      <path d="M 37.203125 16.5 
L 50.875 14.203125 
Q 48.25 6.6875 42.546875 2.75 
Q 36.859375 -1.171875 28.328125 -1.171875 
Q 14.796875 -1.171875 8.296875 7.671875 
Q 3.171875 14.75 3.171875 25.53125 
Q 3.171875 38.421875 9.90625 45.71875 
Q 16.65625 53.03125 26.953125 53.03125 
Q 38.53125 53.03125 45.21875 45.390625 
Q 51.90625 37.75 51.609375 21.96875 
L 17.234375 21.96875 
Q 17.390625 15.875 20.5625 12.46875 
Q 23.734375 9.078125 28.46875 9.078125 
Q 31.6875 9.078125 33.875 10.828125 
Q 36.078125 12.59375 37.203125 16.5 
z
M 37.984375 30.375 
Q 37.84375 36.328125 34.90625 39.421875 
Q 31.984375 42.53125 27.78125 42.53125 
Q 23.296875 42.53125 20.359375 39.265625 
Q 17.4375 35.984375 17.484375 30.375 
z
" id="Arial-BoldMT-101"/>
      <path d="M 2.34375 14.796875 
L 16.109375 16.890625 
Q 17 12.890625 19.671875 10.8125 
Q 22.359375 8.734375 27.203125 8.734375 
Q 32.515625 8.734375 35.203125 10.6875 
Q 37.015625 12.0625 37.015625 14.359375 
Q 37.015625 15.921875 36.03125 16.9375 
Q 35.015625 17.921875 31.453125 18.75 
Q 14.84375 22.40625 10.40625 25.4375 
Q 4.25 29.640625 4.25 37.109375 
Q 4.25 43.84375 9.5625 48.4375 
Q 14.890625 53.03125 26.078125 53.03125 
Q 36.71875 53.03125 41.890625 49.5625 
Q 47.078125 46.09375 49.03125 39.3125 
L 36.078125 36.921875 
Q 35.25 39.9375 32.921875 41.546875 
Q 30.609375 43.171875 26.3125 43.171875 
Q 20.90625 43.171875 18.5625 41.65625 
Q 17 40.578125 17 38.875 
Q 17 37.40625 18.359375 36.375 
Q 20.21875 35.015625 31.171875 32.515625 
Q 42.140625 30.03125 46.484375 26.421875 
Q 50.78125 22.75 50.78125 16.21875 
Q 50.78125 9.078125 44.828125 3.953125 
Q 38.875 -1.171875 27.203125 -1.171875 
Q 16.609375 -1.171875 10.421875 3.125 
Q 4.25 7.421875 2.34375 14.796875 
z
" id="Arial-BoldMT-115"/>
      <path d="M 17.4375 36.03125 
L 4.984375 38.28125 
Q 7.078125 45.796875 12.203125 49.40625 
Q 17.328125 53.03125 27.4375 53.03125 
Q 36.625 53.03125 41.109375 50.859375 
Q 45.609375 48.6875 47.4375 45.34375 
Q 49.265625 42 49.265625 33.0625 
L 49.125 17.046875 
Q 49.125 10.203125 49.78125 6.953125 
Q 50.4375 3.71875 52.25 0 
L 38.671875 0 
Q 38.140625 1.375 37.359375 4.046875 
Q 37.015625 5.28125 36.859375 5.671875 
Q 33.34375 2.25 29.34375 0.53125 
Q 25.34375 -1.171875 20.796875 -1.171875 
Q 12.796875 -1.171875 8.171875 3.171875 
Q 3.5625 7.515625 3.5625 14.15625 
Q 3.5625 18.5625 5.65625 22 
Q 7.765625 25.4375 11.546875 27.265625 
Q 15.328125 29.109375 22.46875 30.46875 
Q 32.078125 32.28125 35.796875 33.84375 
L 35.796875 35.203125 
Q 35.796875 39.15625 33.84375 40.84375 
Q 31.890625 42.53125 26.46875 42.53125 
Q 22.796875 42.53125 20.75 41.09375 
Q 18.703125 39.65625 17.4375 36.03125 
z
M 35.796875 24.90625 
Q 33.15625 24.03125 27.4375 22.796875 
Q 21.734375 21.578125 19.96875 20.40625 
Q 17.28125 18.5 17.28125 15.578125 
Q 17.28125 12.703125 19.421875 10.59375 
Q 21.578125 8.5 24.90625 8.5 
Q 28.609375 8.5 31.984375 10.9375 
Q 34.46875 12.796875 35.25 15.484375 
Q 35.796875 17.234375 35.796875 22.171875 
z
" id="Arial-BoldMT-97"/>
      <path d="M 20.3125 0 
L 6.59375 0 
L 6.59375 51.859375 
L 19.34375 51.859375 
L 19.34375 44.484375 
Q 22.609375 49.703125 25.21875 51.359375 
Q 27.828125 53.03125 31.15625 53.03125 
Q 35.84375 53.03125 40.1875 50.4375 
L 35.9375 38.484375 
Q 32.46875 40.71875 29.5 40.71875 
Q 26.609375 40.71875 24.609375 39.125 
Q 22.609375 37.546875 21.453125 33.390625 
Q 20.3125 29.25 20.3125 16.015625 
z
" id="Arial-BoldMT-114"/>
      <path d="M 54.34375 0 
L 40.625 0 
L 40.625 26.46875 
Q 40.625 34.859375 39.75 37.328125 
Q 38.875 39.796875 36.890625 41.15625 
Q 34.90625 42.53125 32.125 42.53125 
Q 28.5625 42.53125 25.734375 40.578125 
Q 22.90625 38.625 21.84375 35.390625 
Q 20.796875 32.171875 20.796875 23.484375 
L 20.796875 0 
L 7.078125 0 
L 7.078125 51.859375 
L 19.828125 51.859375 
L 19.828125 44.234375 
Q 26.609375 53.03125 36.921875 53.03125 
Q 41.453125 53.03125 45.203125 51.390625 
Q 48.96875 49.75 50.890625 47.203125 
Q 52.828125 44.671875 53.578125 41.453125 
Q 54.34375 38.234375 54.34375 32.234375 
z
" id="Arial-BoldMT-110"/>
     </defs>
     <use xlink:href="#Arial-BoldMT-82"/>
     <use x="72.216797" xlink:href="#Arial-BoldMT-101"/>
     <use x="127.832031" xlink:href="#Arial-BoldMT-115"/>
     <use x="183.447266" xlink:href="#Arial-BoldMT-116"/>
     <use x="216.748047" xlink:href="#Arial-BoldMT-97"/>
     <use x="272.363281" xlink:href="#Arial-BoldMT-117"/>
     <use x="333.447266" xlink:href="#Arial-BoldMT-114"/>
     <use x="372.363281" xlink:href="#Arial-BoldMT-97"/>
     <use x="427.978516" xlink:href="#Arial-BoldMT-110"/>
     <use x="489.0625" xlink:href="#Arial-BoldMT-116"/>
    </g>
   </g>
   <g id="text_3">
    <!-- Grocery Shop -->
    <g transform="translate(326.309382 284.247143)scale(0.12 -0.12)">
     <defs>
      <path d="M 40.578125 26.3125 
L 40.578125 38.375 
L 71.734375 38.375 
L 71.734375 9.859375 
Q 67.1875 5.46875 58.5625 2.125 
Q 49.953125 -1.21875 41.109375 -1.21875 
Q 29.890625 -1.21875 21.53125 3.484375 
Q 13.1875 8.203125 8.984375 16.96875 
Q 4.78125 25.734375 4.78125 36.03125 
Q 4.78125 47.21875 9.46875 55.90625 
Q 14.15625 64.59375 23.1875 69.234375 
Q 30.078125 72.796875 40.328125 72.796875 
Q 53.65625 72.796875 61.15625 67.203125 
Q 68.65625 61.625 70.796875 51.765625 
L 56.453125 49.078125 
Q 54.9375 54.34375 50.75 57.390625 
Q 46.578125 60.453125 40.328125 60.453125 
Q 30.859375 60.453125 25.265625 54.4375 
Q 19.671875 48.4375 19.671875 36.625 
Q 19.671875 23.875 25.328125 17.5 
Q 31 11.140625 40.1875 11.140625 
Q 44.734375 11.140625 49.296875 12.921875 
Q 53.859375 14.703125 57.125 17.234375 
L 57.125 26.3125 
z
" id="Arial-BoldMT-71"/>
      <path d="M 4 26.65625 
Q 4 33.5 7.375 39.890625 
Q 10.75 46.296875 16.921875 49.65625 
Q 23.09375 53.03125 30.71875 53.03125 
Q 42.484375 53.03125 50 45.390625 
Q 57.515625 37.75 57.515625 26.078125 
Q 57.515625 14.3125 49.921875 6.5625 
Q 42.328125 -1.171875 30.8125 -1.171875 
Q 23.6875 -1.171875 17.21875 2.046875 
Q 10.75 5.28125 7.375 11.5 
Q 4 17.71875 4 26.65625 
z
M 18.0625 25.921875 
Q 18.0625 18.21875 21.71875 14.109375 
Q 25.390625 10.015625 30.765625 10.015625 
Q 36.140625 10.015625 39.765625 14.109375 
Q 43.40625 18.21875 43.40625 26.03125 
Q 43.40625 33.640625 39.765625 37.734375 
Q 36.140625 41.84375 30.765625 41.84375 
Q 25.390625 41.84375 21.71875 37.734375 
Q 18.0625 33.640625 18.0625 25.921875 
z
" id="Arial-BoldMT-111"/>
      <path d="M 0.6875 51.859375 
L 15.28125 51.859375 
L 27.6875 15.046875 
L 39.796875 51.859375 
L 54 51.859375 
L 35.6875 1.953125 
L 32.421875 -7.078125 
Q 30.609375 -11.625 28.96875 -14.015625 
Q 27.34375 -16.40625 25.21875 -17.890625 
Q 23.09375 -19.390625 19.984375 -20.21875 
Q 16.890625 -21.046875 12.984375 -21.046875 
Q 9.03125 -21.046875 5.21875 -20.21875 
L 4 -9.46875 
Q 7.234375 -10.109375 9.8125 -10.109375 
Q 14.59375 -10.109375 16.890625 -7.296875 
Q 19.1875 -4.5 20.40625 -0.140625 
z
" id="Arial-BoldMT-121"/>
      <path d="M 3.609375 23.296875 
L 17.671875 24.65625 
Q 18.953125 17.578125 22.828125 14.25 
Q 26.703125 10.9375 33.296875 10.9375 
Q 40.28125 10.9375 43.8125 13.890625 
Q 47.359375 16.84375 47.359375 20.796875 
Q 47.359375 23.34375 45.875 25.125 
Q 44.390625 26.90625 40.671875 28.21875 
Q 38.140625 29.109375 29.109375 31.34375 
Q 17.484375 34.234375 12.796875 38.421875 
Q 6.203125 44.34375 6.203125 52.828125 
Q 6.203125 58.296875 9.296875 63.0625 
Q 12.40625 67.828125 18.234375 70.3125 
Q 24.078125 72.796875 32.328125 72.796875 
Q 45.796875 72.796875 52.609375 66.890625 
Q 59.421875 60.984375 59.765625 51.125 
L 45.3125 50.484375 
Q 44.390625 56 41.328125 58.421875 
Q 38.28125 60.84375 32.171875 60.84375 
Q 25.875 60.84375 22.3125 58.25 
Q 20.015625 56.59375 20.015625 53.8125 
Q 20.015625 51.265625 22.171875 49.46875 
Q 24.90625 47.171875 35.453125 44.671875 
Q 46 42.1875 51.046875 39.515625 
Q 56.109375 36.859375 58.953125 32.25 
Q 61.8125 27.640625 61.8125 20.84375 
Q 61.8125 14.703125 58.390625 9.328125 
Q 54.984375 3.953125 48.734375 1.34375 
Q 42.484375 -1.265625 33.15625 -1.265625 
Q 19.578125 -1.265625 12.296875 5 
Q 5.03125 11.28125 3.609375 23.296875 
z
" id="Arial-BoldMT-83"/>
      <path d="M 6.78125 51.859375 
L 19.578125 51.859375 
L 19.578125 44.234375 
Q 22.078125 48.140625 26.3125 50.578125 
Q 30.5625 53.03125 35.75 53.03125 
Q 44.78125 53.03125 51.078125 45.953125 
Q 57.375 38.875 57.375 26.21875 
Q 57.375 13.234375 51.015625 6.03125 
Q 44.671875 -1.171875 35.640625 -1.171875 
Q 31.34375 -1.171875 27.84375 0.53125 
Q 24.359375 2.25 20.515625 6.390625 
L 20.515625 -19.734375 
L 6.78125 -19.734375 
z
M 20.359375 26.8125 
Q 20.359375 18.0625 23.828125 13.890625 
Q 27.296875 9.71875 32.28125 9.71875 
Q 37.0625 9.71875 40.234375 13.546875 
Q 43.40625 17.390625 43.40625 26.125 
Q 43.40625 34.28125 40.125 38.234375 
Q 36.859375 42.1875 32.03125 42.1875 
Q 27 42.1875 23.671875 38.296875 
Q 20.359375 34.421875 20.359375 26.8125 
z
" id="Arial-BoldMT-112"/>
     </defs>
     <use xlink:href="#Arial-BoldMT-71"/>
     <use x="77.783203" xlink:href="#Arial-BoldMT-114"/>
     <use x="116.699219" xlink:href="#Arial-BoldMT-111"/>
     <use x="177.783203" xlink:href="#Arial-BoldMT-99"/>
     <use x="233.398438" xlink:href="#Arial-BoldMT-101"/>
     <use x="289.013672" xlink:href="#Arial-BoldMT-114"/>
     <use x="327.929688" xlink:href="#Arial-BoldMT-121"/>
     <use x="383.544922" xlink:href="#Arial-BoldMT-32"/>
     <use x="411.328125" xlink:href="#Arial-BoldMT-83"/>
     <use x="478.027344" xlink:href="#Arial-BoldMT-104"/>
     <use x="539.111328" xlink:href="#Arial-BoldMT-111"/>
     <use x="600.195312" xlink:href="#Arial-BoldMT-112"/>
    </g>
   </g>
   <g id="text_4">
    <!-- Friend's house -->
    <g transform="translate(308.997114 335.632968)scale(0.12 -0.12)">
     <defs>
      <path d="M 7.375 0 
L 7.375 71.578125 
L 56.453125 71.578125 
L 56.453125 59.46875 
L 21.828125 59.46875 
L 21.828125 42.53125 
L 51.703125 42.53125 
L 51.703125 30.421875 
L 21.828125 30.421875 
L 21.828125 0 
z
" id="Arial-BoldMT-70"/>
      <path d="M 54.734375 0 
L 42 0 
L 42 7.625 
Q 38.8125 3.171875 34.484375 1 
Q 30.171875 -1.171875 25.78125 -1.171875 
Q 16.84375 -1.171875 10.46875 6.03125 
Q 4.109375 13.234375 4.109375 26.125 
Q 4.109375 39.3125 10.296875 46.171875 
Q 16.5 53.03125 25.984375 53.03125 
Q 34.671875 53.03125 41.015625 45.796875 
L 41.015625 71.578125 
L 54.734375 71.578125 
z
M 18.109375 27.046875 
Q 18.109375 18.75 20.40625 15.046875 
Q 23.734375 9.671875 29.6875 9.671875 
Q 34.421875 9.671875 37.734375 13.6875 
Q 41.0625 17.71875 41.0625 25.734375 
Q 41.0625 34.671875 37.84375 38.59375 
Q 34.625 42.53125 29.59375 42.53125 
Q 24.703125 42.53125 21.40625 38.640625 
Q 18.109375 34.765625 18.109375 27.046875 
z
" id="Arial-BoldMT-100"/>
      <path d="M 7.078125 46.140625 
L 4.5 59.46875 
L 4.5 71.578125 
L 19.4375 71.578125 
L 19.4375 59.46875 
L 17.1875 46.140625 
z
" id="Arial-BoldMT-39"/>
     </defs>
     <use xlink:href="#Arial-BoldMT-70"/>
     <use x="61.083984" xlink:href="#Arial-BoldMT-114"/>
     <use x="100" xlink:href="#Arial-BoldMT-105"/>
     <use x="127.783203" xlink:href="#Arial-BoldMT-101"/>
     <use x="183.398438" xlink:href="#Arial-BoldMT-110"/>
     <use x="244.482422" xlink:href="#Arial-BoldMT-100"/>
     <use x="305.566406" xlink:href="#Arial-BoldMT-39"/>
     <use x="329.345703" xlink:href="#Arial-BoldMT-115"/>
     <use x="384.960938" xlink:href="#Arial-BoldMT-32"/>
     <use x="412.744141" xlink:href="#Arial-BoldMT-104"/>
     <use x="473.828125" xlink:href="#Arial-BoldMT-111"/>
     <use x="534.912109" xlink:href="#Arial-BoldMT-117"/>
     <use x="595.996094" xlink:href="#Arial-BoldMT-115"/>
     <use x="651.611328" xlink:href="#Arial-BoldMT-101"/>
    </g>
   </g>
   <g id="text_5">
    <!-- Home -->
    <g transform="translate(319.173445 175.577821)scale(0.12 -0.12)">
     <defs>
      <path d="M 7.328125 0 
L 7.328125 71.578125 
L 21.78125 71.578125 
L 21.78125 43.40625 
L 50.09375 43.40625 
L 50.09375 71.578125 
L 64.546875 71.578125 
L 64.546875 0 
L 50.09375 0 
L 50.09375 31.296875 
L 21.78125 31.296875 
L 21.78125 0 
z
" id="Arial-BoldMT-72"/>
      <path d="M 6.15625 51.859375 
L 18.796875 51.859375 
L 18.796875 44.78125 
Q 25.59375 53.03125 34.96875 53.03125 
Q 39.9375 53.03125 43.59375 50.96875 
Q 47.265625 48.921875 49.609375 44.78125 
Q 53.03125 48.921875 56.984375 50.96875 
Q 60.9375 53.03125 65.4375 53.03125 
Q 71.140625 53.03125 75.09375 50.703125 
Q 79.046875 48.390625 81 43.890625 
Q 82.421875 40.578125 82.421875 33.15625 
L 82.421875 0 
L 68.703125 0 
L 68.703125 29.640625 
Q 68.703125 37.359375 67.28125 39.59375 
Q 65.375 42.53125 61.421875 42.53125 
Q 58.546875 42.53125 56 40.765625 
Q 53.46875 39.015625 52.34375 35.625 
Q 51.21875 32.234375 51.21875 24.90625 
L 51.21875 0 
L 37.5 0 
L 37.5 28.421875 
Q 37.5 35.984375 36.765625 38.171875 
Q 36.03125 40.375 34.484375 41.453125 
Q 32.953125 42.53125 30.328125 42.53125 
Q 27.15625 42.53125 24.609375 40.8125 
Q 22.078125 39.109375 20.96875 35.890625 
Q 19.875 32.671875 19.875 25.203125 
L 19.875 0 
L 6.15625 0 
z
" id="Arial-BoldMT-109"/>
     </defs>
     <use xlink:href="#Arial-BoldMT-72"/>
     <use x="72.216797" xlink:href="#Arial-BoldMT-111"/>
     <use x="133.300781" xlink:href="#Arial-BoldMT-109"/>
     <use x="222.216797" xlink:href="#Arial-BoldMT-101"/>
    </g>
   </g>
   <g id="text_6">
    <!-- Show -->
    <g transform="translate(57.346454 394.023106)scale(0.12 -0.12)">
     <defs>
      <path d="M 16.84375 0 
L 0.4375 51.859375 
L 13.765625 51.859375 
L 23.484375 17.875 
L 32.421875 51.859375 
L 45.65625 51.859375 
L 54.296875 17.875 
L 64.203125 51.859375 
L 77.734375 51.859375 
L 61.078125 0 
L 47.90625 0 
L 38.96875 33.34375 
L 30.171875 0 
z
" id="Arial-BoldMT-119"/>
     </defs>
     <use xlink:href="#Arial-BoldMT-83"/>
     <use x="66.699219" xlink:href="#Arial-BoldMT-104"/>
     <use x="127.783203" xlink:href="#Arial-BoldMT-111"/>
     <use x="188.867188" xlink:href="#Arial-BoldMT-119"/>
    </g>
   </g>
   <g id="text_7">
    <!-- House party -->
    <g transform="translate(253.51229 320.267341)scale(0.12 -0.12)">
     <use xlink:href="#Arial-BoldMT-72"/>
     <use x="72.216797" xlink:href="#Arial-BoldMT-111"/>
     <use x="133.300781" xlink:href="#Arial-BoldMT-117"/>
     <use x="194.384766" xlink:href="#Arial-BoldMT-115"/>
     <use x="250" xlink:href="#Arial-BoldMT-101"/>
     <use x="305.615234" xlink:href="#Arial-BoldMT-32"/>
     <use x="333.398438" xlink:href="#Arial-BoldMT-112"/>
     <use x="394.482422" xlink:href="#Arial-BoldMT-97"/>
     <use x="450.097656" xlink:href="#Arial-BoldMT-114"/>
     <use x="489.013672" xlink:href="#Arial-BoldMT-116"/>
     <use x="522.314453" xlink:href="#Arial-BoldMT-121"/>
    </g>
   </g>
   <g id="text_8">
    <!-- Pub -->
    <g transform="translate(104.590614 191.829972)scale(0.12 -0.12)">
     <defs>
      <path d="M 7.28125 0 
L 7.28125 71.578125 
L 30.46875 71.578125 
Q 43.65625 71.578125 47.65625 70.515625 
Q 53.8125 68.890625 57.953125 63.5 
Q 62.109375 58.109375 62.109375 49.5625 
Q 62.109375 42.96875 59.71875 38.46875 
Q 57.328125 33.984375 53.640625 31.421875 
Q 49.953125 28.859375 46.140625 28.03125 
Q 40.96875 27 31.15625 27 
L 21.734375 27 
L 21.734375 0 
z
M 21.734375 59.46875 
L 21.734375 39.15625 
L 29.640625 39.15625 
Q 38.1875 39.15625 41.0625 40.28125 
Q 43.953125 41.40625 45.578125 43.796875 
Q 47.21875 46.1875 47.21875 49.359375 
Q 47.21875 53.265625 44.921875 55.796875 
Q 42.625 58.34375 39.109375 58.984375 
Q 36.53125 59.46875 28.71875 59.46875 
z
" id="Arial-BoldMT-80"/>
     </defs>
     <use xlink:href="#Arial-BoldMT-80"/>
     <use x="66.699219" xlink:href="#Arial-BoldMT-117"/>
     <use x="127.783203" xlink:href="#Arial-BoldMT-98"/>
    </g>
   </g>
   <g id="text_9">
    <!-- Bar -->
    <g transform="translate(509.585773 491.003462)scale(0.12 -0.12)">
     <defs>
      <path d="M 7.328125 71.578125 
L 35.9375 71.578125 
Q 44.4375 71.578125 48.609375 70.875 
Q 52.78125 70.171875 56.078125 67.921875 
Q 59.375 65.671875 61.5625 61.9375 
Q 63.765625 58.203125 63.765625 53.5625 
Q 63.765625 48.53125 61.046875 44.328125 
Q 58.34375 40.140625 53.71875 38.03125 
Q 60.25 36.140625 63.765625 31.546875 
Q 67.28125 26.953125 67.28125 20.75 
Q 67.28125 15.875 65.015625 11.25 
Q 62.75 6.640625 58.8125 3.875 
Q 54.890625 1.125 49.125 0.484375 
Q 45.515625 0.09375 31.6875 0 
L 7.328125 0 
z
M 21.78125 59.671875 
L 21.78125 43.109375 
L 31.25 43.109375 
Q 39.703125 43.109375 41.75 43.359375 
Q 45.453125 43.796875 47.578125 45.921875 
Q 49.703125 48.046875 49.703125 51.515625 
Q 49.703125 54.828125 47.875 56.90625 
Q 46.046875 58.984375 42.4375 59.421875 
Q 40.28125 59.671875 30.078125 59.671875 
z
M 21.78125 31.203125 
L 21.78125 12.0625 
L 35.15625 12.0625 
Q 42.96875 12.0625 45.0625 12.5 
Q 48.296875 13.09375 50.3125 15.359375 
Q 52.34375 17.625 52.34375 21.4375 
Q 52.34375 24.65625 50.78125 26.90625 
Q 49.21875 29.15625 46.265625 30.171875 
Q 43.3125 31.203125 33.453125 31.203125 
z
" id="Arial-BoldMT-66"/>
     </defs>
     <use xlink:href="#Arial-BoldMT-66"/>
     <use x="72.216797" xlink:href="#Arial-BoldMT-97"/>
     <use x="127.832031" xlink:href="#Arial-BoldMT-114"/>
    </g>
   </g>
   <g id="text_10">
    <!-- Beach -->
    <g transform="translate(278.754253 55.302389)scale(0.12 -0.12)">
     <use xlink:href="#Arial-BoldMT-66"/>
     <use x="72.216797" xlink:href="#Arial-BoldMT-101"/>
     <use x="127.832031" xlink:href="#Arial-BoldMT-97"/>
     <use x="183.447266" xlink:href="#Arial-BoldMT-99"/>
     <use x="239.0625" xlink:href="#Arial-BoldMT-104"/>
    </g>
   </g>
   <g id="text_11">
    <!-- Pool -->
    <g transform="translate(205.787858 182.574465)scale(0.12 -0.12)">
     <use xlink:href="#Arial-BoldMT-80"/>
     <use x="66.699219" xlink:href="#Arial-BoldMT-111"/>
     <use x="127.783203" xlink:href="#Arial-BoldMT-111"/>
     <use x="188.867188" xlink:href="#Arial-BoldMT-108"/>
    </g>
   </g>
   <g id="text_12">
    <!-- Beer 1 -->
    <g style="fill:#9a3670;" transform="translate(362.125786 219.012905)scale(0.12 -0.12)">
     <defs>
      <path d="M 39.359375 0 
L 25.640625 0 
L 25.640625 51.703125 
Q 18.109375 44.671875 7.90625 41.3125 
L 7.90625 53.765625 
Q 13.28125 55.515625 19.578125 60.421875 
Q 25.875 65.328125 28.21875 71.875 
L 39.359375 71.875 
z
" id="Arial-BoldMT-49"/>
     </defs>
     <use xlink:href="#Arial-BoldMT-66"/>
     <use x="72.216797" xlink:href="#Arial-BoldMT-101"/>
     <use x="127.832031" xlink:href="#Arial-BoldMT-101"/>
     <use x="183.447266" xlink:href="#Arial-BoldMT-114"/>
     <use x="222.363281" xlink:href="#Arial-BoldMT-32"/>
     <use x="250.146484" xlink:href="#Arial-BoldMT-49"/>
    </g>
   </g>
   <g id="text_13">
    <!-- Cheap Spirit -->
    <g style="fill:#9a3670;" transform="translate(423.18831 549.484207)scale(0.12 -0.12)">
     <defs>
      <path d="M 53.078125 26.3125 
L 67.09375 21.875 
Q 63.875 10.15625 56.375 4.46875 
Q 48.875 -1.21875 37.359375 -1.21875 
Q 23.09375 -1.21875 13.90625 8.515625 
Q 4.734375 18.265625 4.734375 35.15625 
Q 4.734375 53.03125 13.953125 62.90625 
Q 23.1875 72.796875 38.234375 72.796875 
Q 51.375 72.796875 59.578125 65.046875 
Q 64.453125 60.453125 66.890625 51.859375 
L 52.59375 48.4375 
Q 51.3125 54 47.28125 57.21875 
Q 43.265625 60.453125 37.5 60.453125 
Q 29.546875 60.453125 24.578125 54.734375 
Q 19.625 49.03125 19.625 36.234375 
Q 19.625 22.65625 24.5 16.890625 
Q 29.390625 11.140625 37.203125 11.140625 
Q 42.96875 11.140625 47.109375 14.796875 
Q 51.265625 18.453125 53.078125 26.3125 
z
" id="Arial-BoldMT-67"/>
     </defs>
     <use xlink:href="#Arial-BoldMT-67"/>
     <use x="72.216797" xlink:href="#Arial-BoldMT-104"/>
     <use x="133.300781" xlink:href="#Arial-BoldMT-101"/>
     <use x="188.916016" xlink:href="#Arial-BoldMT-97"/>
     <use x="244.53125" xlink:href="#Arial-BoldMT-112"/>
     <use x="305.615234" xlink:href="#Arial-BoldMT-32"/>
     <use x="333.398438" xlink:href="#Arial-BoldMT-83"/>
     <use x="400.097656" xlink:href="#Arial-BoldMT-112"/>
     <use x="461.181641" xlink:href="#Arial-BoldMT-105"/>
     <use x="488.964844" xlink:href="#Arial-BoldMT-114"/>
     <use x="527.880859" xlink:href="#Arial-BoldMT-105"/>
     <use x="555.664062" xlink:href="#Arial-BoldMT-116"/>
    </g>
   </g>
   <g id="text_14">
    <!-- Beer 2 -->
    <g style="fill:#9a3670;" transform="translate(276.073701 205.640308)scale(0.12 -0.12)">
     <defs>
      <path d="M 50.59375 12.75 
L 50.59375 0 
L 2.484375 0 
Q 3.265625 7.234375 7.171875 13.703125 
Q 11.078125 20.171875 22.609375 30.859375 
Q 31.890625 39.5 33.984375 42.578125 
Q 36.8125 46.828125 36.8125 50.984375 
Q 36.8125 55.5625 34.34375 58.03125 
Q 31.890625 60.5 27.546875 60.5 
Q 23.25 60.5 20.703125 57.90625 
Q 18.171875 55.328125 17.78125 49.3125 
L 4.109375 50.6875 
Q 5.328125 62.015625 11.765625 66.9375 
Q 18.21875 71.875 27.875 71.875 
Q 38.484375 71.875 44.53125 66.15625 
Q 50.59375 60.453125 50.59375 51.953125 
Q 50.59375 47.125 48.859375 42.75 
Q 47.125 38.375 43.359375 33.59375 
Q 40.875 30.421875 34.375 24.453125 
Q 27.875 18.5 26.140625 16.546875 
Q 24.421875 14.59375 23.34375 12.75 
z
" id="Arial-BoldMT-50"/>
     </defs>
     <use xlink:href="#Arial-BoldMT-66"/>
     <use x="72.216797" xlink:href="#Arial-BoldMT-101"/>
     <use x="127.832031" xlink:href="#Arial-BoldMT-101"/>
     <use x="183.447266" xlink:href="#Arial-BoldMT-114"/>
     <use x="222.363281" xlink:href="#Arial-BoldMT-32"/>
     <use x="250.146484" xlink:href="#Arial-BoldMT-50"/>
    </g>
   </g>
   <g id="text_15">
    <!-- Flavoured Spirit 4 -->
    <g style="fill:#9a3670;" transform="translate(168.655104 131.750304)scale(0.12 -0.12)">
     <defs>
      <path d="M 21.4375 0 
L 0.53125 51.859375 
L 14.9375 51.859375 
L 24.703125 25.390625 
L 27.546875 16.546875 
Q 28.65625 19.921875 28.953125 21 
Q 29.640625 23.1875 30.421875 25.390625 
L 40.28125 51.859375 
L 54.390625 51.859375 
L 33.796875 0 
z
" id="Arial-BoldMT-118"/>
      <path d="M 31.15625 0 
L 31.15625 14.40625 
L 1.859375 14.40625 
L 1.859375 26.421875 
L 32.90625 71.875 
L 44.4375 71.875 
L 44.4375 26.46875 
L 53.328125 26.46875 
L 53.328125 14.40625 
L 44.4375 14.40625 
L 44.4375 0 
z
M 31.15625 26.46875 
L 31.15625 50.921875 
L 14.703125 26.46875 
z
" id="Arial-BoldMT-52"/>
     </defs>
     <use xlink:href="#Arial-BoldMT-70"/>
     <use x="61.083984" xlink:href="#Arial-BoldMT-108"/>
     <use x="88.867188" xlink:href="#Arial-BoldMT-97"/>
     <use x="144.482422" xlink:href="#Arial-BoldMT-118"/>
     <use x="200.097656" xlink:href="#Arial-BoldMT-111"/>
     <use x="261.181641" xlink:href="#Arial-BoldMT-117"/>
     <use x="322.265625" xlink:href="#Arial-BoldMT-114"/>
     <use x="361.181641" xlink:href="#Arial-BoldMT-101"/>
     <use x="416.796875" xlink:href="#Arial-BoldMT-100"/>
     <use x="477.880859" xlink:href="#Arial-BoldMT-32"/>
     <use x="505.664062" xlink:href="#Arial-BoldMT-83"/>
     <use x="572.363281" xlink:href="#Arial-BoldMT-112"/>
     <use x="633.447266" xlink:href="#Arial-BoldMT-105"/>
     <use x="661.230469" xlink:href="#Arial-BoldMT-114"/>
     <use x="700.146484" xlink:href="#Arial-BoldMT-105"/>
     <use x="727.929688" xlink:href="#Arial-BoldMT-116"/>
     <use x="761.230469" xlink:href="#Arial-BoldMT-32"/>
     <use x="789.013672" xlink:href="#Arial-BoldMT-52"/>
    </g>
   </g>
   <g id="text_16">
    <!-- Flavoured Spirit 1 -->
    <g style="fill:#9a3670;" transform="translate(157.500979 236.207107)scale(0.12 -0.12)">
     <use xlink:href="#Arial-BoldMT-70"/>
     <use x="61.083984" xlink:href="#Arial-BoldMT-108"/>
     <use x="88.867188" xlink:href="#Arial-BoldMT-97"/>
     <use x="144.482422" xlink:href="#Arial-BoldMT-118"/>
     <use x="200.097656" xlink:href="#Arial-BoldMT-111"/>
     <use x="261.181641" xlink:href="#Arial-BoldMT-117"/>
     <use x="322.265625" xlink:href="#Arial-BoldMT-114"/>
     <use x="361.181641" xlink:href="#Arial-BoldMT-101"/>
     <use x="416.796875" xlink:href="#Arial-BoldMT-100"/>
     <use x="477.880859" xlink:href="#Arial-BoldMT-32"/>
     <use x="505.664062" xlink:href="#Arial-BoldMT-83"/>
     <use x="572.363281" xlink:href="#Arial-BoldMT-112"/>
     <use x="633.447266" xlink:href="#Arial-BoldMT-105"/>
     <use x="661.230469" xlink:href="#Arial-BoldMT-114"/>
     <use x="700.146484" xlink:href="#Arial-BoldMT-105"/>
     <use x="727.929688" xlink:href="#Arial-BoldMT-116"/>
     <use x="761.230469" xlink:href="#Arial-BoldMT-32"/>
     <use x="789.013672" xlink:href="#Arial-BoldMT-49"/>
    </g>
   </g>
   <g id="text_17">
    <!-- Beer 3 -->
    <g style="fill:#9a3670;" transform="translate(415.051265 141.204445)scale(0.12 -0.12)">
     <defs>
      <path d="M 3.765625 19 
L 17.046875 20.609375 
Q 17.671875 15.53125 20.453125 12.84375 
Q 23.25 10.15625 27.203125 10.15625 
Q 31.453125 10.15625 34.34375 13.375 
Q 37.25 16.609375 37.25 22.078125 
Q 37.25 27.25 34.46875 30.265625 
Q 31.6875 33.296875 27.6875 33.296875 
Q 25.046875 33.296875 21.390625 32.28125 
L 22.90625 43.453125 
Q 28.46875 43.3125 31.390625 45.875 
Q 34.328125 48.4375 34.328125 52.6875 
Q 34.328125 56.296875 32.171875 58.4375 
Q 30.03125 60.59375 26.46875 60.59375 
Q 22.953125 60.59375 20.453125 58.15625 
Q 17.96875 55.71875 17.4375 51.03125 
L 4.78125 53.171875 
Q 6.109375 59.671875 8.765625 63.546875 
Q 11.421875 67.4375 16.1875 69.65625 
Q 20.953125 71.875 26.859375 71.875 
Q 36.96875 71.875 43.0625 65.4375 
Q 48.09375 60.15625 48.09375 53.515625 
Q 48.09375 44.09375 37.796875 38.484375 
Q 43.953125 37.15625 47.625 32.5625 
Q 51.3125 27.984375 51.3125 21.484375 
Q 51.3125 12.0625 44.421875 5.421875 
Q 37.546875 -1.21875 27.296875 -1.21875 
Q 17.578125 -1.21875 11.171875 4.375 
Q 4.78125 9.96875 3.765625 19 
z
" id="Arial-BoldMT-51"/>
     </defs>
     <use xlink:href="#Arial-BoldMT-66"/>
     <use x="72.216797" xlink:href="#Arial-BoldMT-101"/>
     <use x="127.832031" xlink:href="#Arial-BoldMT-101"/>
     <use x="183.447266" xlink:href="#Arial-BoldMT-114"/>
     <use x="222.363281" xlink:href="#Arial-BoldMT-32"/>
     <use x="250.146484" xlink:href="#Arial-BoldMT-51"/>
    </g>
   </g>
   <g id="text_18">
    <!-- Flavoured Beer 1 -->
    <g style="fill:#9a3670;" transform="translate(110.158473 337.504959)scale(0.12 -0.12)">
     <use xlink:href="#Arial-BoldMT-70"/>
     <use x="61.083984" xlink:href="#Arial-BoldMT-108"/>
     <use x="88.867188" xlink:href="#Arial-BoldMT-97"/>
     <use x="144.482422" xlink:href="#Arial-BoldMT-118"/>
     <use x="200.097656" xlink:href="#Arial-BoldMT-111"/>
     <use x="261.181641" xlink:href="#Arial-BoldMT-117"/>
     <use x="322.265625" xlink:href="#Arial-BoldMT-114"/>
     <use x="361.181641" xlink:href="#Arial-BoldMT-101"/>
     <use x="416.796875" xlink:href="#Arial-BoldMT-100"/>
     <use x="477.880859" xlink:href="#Arial-BoldMT-32"/>
     <use x="505.664062" xlink:href="#Arial-BoldMT-66"/>
     <use x="577.880859" xlink:href="#Arial-BoldMT-101"/>
     <use x="633.496094" xlink:href="#Arial-BoldMT-101"/>
     <use x="689.111328" xlink:href="#Arial-BoldMT-114"/>
     <use x="728.027344" xlink:href="#Arial-BoldMT-32"/>
     <use x="755.810547" xlink:href="#Arial-BoldMT-49"/>
    </g>
   </g>
   <g id="text_19">
    <!-- Flavoured Beer 2 -->
    <g style="fill:#9a3670;" transform="translate(61.237017 484.944992)scale(0.12 -0.12)">
     <use xlink:href="#Arial-BoldMT-70"/>
     <use x="61.083984" xlink:href="#Arial-BoldMT-108"/>
     <use x="88.867188" xlink:href="#Arial-BoldMT-97"/>
     <use x="144.482422" xlink:href="#Arial-BoldMT-118"/>
     <use x="200.097656" xlink:href="#Arial-BoldMT-111"/>
     <use x="261.181641" xlink:href="#Arial-BoldMT-117"/>
     <use x="322.265625" xlink:href="#Arial-BoldMT-114"/>
     <use x="361.181641" xlink:href="#Arial-BoldMT-101"/>
     <use x="416.796875" xlink:href="#Arial-BoldMT-100"/>
     <use x="477.880859" xlink:href="#Arial-BoldMT-32"/>
     <use x="505.664062" xlink:href="#Arial-BoldMT-66"/>
     <use x="577.880859" xlink:href="#Arial-BoldMT-101"/>
     <use x="633.496094" xlink:href="#Arial-BoldMT-101"/>
     <use x="689.111328" xlink:href="#Arial-BoldMT-114"/>
     <use x="728.027344" xlink:href="#Arial-BoldMT-32"/>
     <use x="755.810547" xlink:href="#Arial-BoldMT-50"/>
    </g>
   </g>
   <g id="text_20">
    <!-- Flavoured Spirit 2 -->
    <g style="fill:#9a3670;" transform="translate(146.606047 254.361389)scale(0.12 -0.12)">
     <use xlink:href="#Arial-BoldMT-70"/>
     <use x="61.083984" xlink:href="#Arial-BoldMT-108"/>
     <use x="88.867188" xlink:href="#Arial-BoldMT-97"/>
     <use x="144.482422" xlink:href="#Arial-BoldMT-118"/>
     <use x="200.097656" xlink:href="#Arial-BoldMT-111"/>
     <use x="261.181641" xlink:href="#Arial-BoldMT-117"/>
     <use x="322.265625" xlink:href="#Arial-BoldMT-114"/>
     <use x="361.181641" xlink:href="#Arial-BoldMT-101"/>
     <use x="416.796875" xlink:href="#Arial-BoldMT-100"/>
     <use x="477.880859" xlink:href="#Arial-BoldMT-32"/>
     <use x="505.664062" xlink:href="#Arial-BoldMT-83"/>
     <use x="572.363281" xlink:href="#Arial-BoldMT-112"/>
     <use x="633.447266" xlink:href="#Arial-BoldMT-105"/>
     <use x="661.230469" xlink:href="#Arial-BoldMT-114"/>
     <use x="700.146484" xlink:href="#Arial-BoldMT-105"/>
     <use x="727.929688" xlink:href="#Arial-BoldMT-116"/>
     <use x="761.230469" xlink:href="#Arial-BoldMT-32"/>
     <use x="789.013672" xlink:href="#Arial-BoldMT-50"/>
    </g>
   </g>
   <g id="text_21">
    <!-- Flavoured Spirit 3 -->
    <g style="fill:#9a3670;" transform="translate(170.189209 223.166036)scale(0.12 -0.12)">
     <use xlink:href="#Arial-BoldMT-70"/>
     <use x="61.083984" xlink:href="#Arial-BoldMT-108"/>
     <use x="88.867188" xlink:href="#Arial-BoldMT-97"/>
     <use x="144.482422" xlink:href="#Arial-BoldMT-118"/>
     <use x="200.097656" xlink:href="#Arial-BoldMT-111"/>
     <use x="261.181641" xlink:href="#Arial-BoldMT-117"/>
     <use x="322.265625" xlink:href="#Arial-BoldMT-114"/>
     <use x="361.181641" xlink:href="#Arial-BoldMT-101"/>
     <use x="416.796875" xlink:href="#Arial-BoldMT-100"/>
     <use x="477.880859" xlink:href="#Arial-BoldMT-32"/>
     <use x="505.664062" xlink:href="#Arial-BoldMT-83"/>
     <use x="572.363281" xlink:href="#Arial-BoldMT-112"/>
     <use x="633.447266" xlink:href="#Arial-BoldMT-105"/>
     <use x="661.230469" xlink:href="#Arial-BoldMT-114"/>
     <use x="700.146484" xlink:href="#Arial-BoldMT-105"/>
     <use x="727.929688" xlink:href="#Arial-BoldMT-116"/>
     <use x="761.230469" xlink:href="#Arial-BoldMT-32"/>
     <use x="789.013672" xlink:href="#Arial-BoldMT-51"/>
    </g>
   </g>
   <g id="text_22">
    <!-- Association map -->
    <g style="fill:#262626;" transform="translate(206.185938 21.515625)scale(0.2 -0.2)">
     <defs>
      <path d="M 71.828125 0 
L 56.109375 0 
L 49.859375 16.265625 
L 21.234375 16.265625 
L 15.328125 0 
L 0 0 
L 27.875 71.578125 
L 43.171875 71.578125 
z
M 45.21875 28.328125 
L 35.359375 54.890625 
L 25.6875 28.328125 
z
" id="Arial-BoldMT-65"/>
     </defs>
     <use xlink:href="#Arial-BoldMT-65"/>
     <use x="72.216797" xlink:href="#Arial-BoldMT-115"/>
     <use x="127.832031" xlink:href="#Arial-BoldMT-115"/>
     <use x="183.447266" xlink:href="#Arial-BoldMT-111"/>
     <use x="244.53125" xlink:href="#Arial-BoldMT-99"/>
     <use x="300.146484" xlink:href="#Arial-BoldMT-105"/>
     <use x="327.929688" xlink:href="#Arial-BoldMT-97"/>
     <use x="383.544922" xlink:href="#Arial-BoldMT-116"/>
     <use x="416.845703" xlink:href="#Arial-BoldMT-105"/>
     <use x="444.628906" xlink:href="#Arial-BoldMT-111"/>
     <use x="505.712891" xlink:href="#Arial-BoldMT-110"/>
     <use x="566.796875" xlink:href="#Arial-BoldMT-32"/>
     <use x="594.580078" xlink:href="#Arial-BoldMT-109"/>
     <use x="683.496094" xlink:href="#Arial-BoldMT-97"/>
     <use x="739.111328" xlink:href="#Arial-BoldMT-112"/>
    </g>
   </g>
  </g>
 </g>
 <defs>
  <clipPath id="pfde5fb7239">
   <rect height="543.6" width="558" x="7.2" y="27.515625"/>
  </clipPath>
 </defs>
</svg>
